<svg width="48" height="48" viewBox="0 0 48 48" fill="none" xmlns="http://www.w3.org/2000/svg">
<g clip-path="url(#clip0_2990_4444)">
<rect width="48" height="48" rx="24" fill="#393E46"/>
<rect width="48" height="48" rx="24" fill="#393E46"/>
<rect width="48" height="48" rx="24" fill="#393E46"/>
<path d="M29 14H19C16.2386 14 14 16.2386 14 19V29C14 31.7614 16.2386 34 19 34H29C31.7614 34 34 31.7614 34 29V19C34 16.2386 31.7614 14 29 14Z" stroke="#EEEEEE" stroke-opacity="0.75" stroke-width="2" stroke-linecap="round" stroke-linejoin="round"/>
<path d="M28 23.3698C28.1234 24.2021 27.9813 25.052 27.5938 25.7988C27.2063 26.5456 26.5932 27.1512 25.8416 27.5295C25.0901 27.9077 24.2385 28.0394 23.4078 27.9057C22.5771 27.7721 21.8098 27.3799 21.2149 26.785C20.6199 26.1901 20.2277 25.4227 20.0941 24.592C19.9604 23.7614 20.0921 22.9097 20.4703 22.1582C20.8486 21.4067 21.4542 20.7936 22.201 20.4061C22.9478 20.0186 23.7978 19.8764 24.63 19.9998C25.4789 20.1257 26.2649 20.5213 26.8717 21.1281C27.4785 21.735 27.8741 22.5209 28 23.3698Z" stroke="#EEEEEE" stroke-opacity="0.75" stroke-width="2" stroke-linecap="round" stroke-linejoin="round"/>
<path d="M29.5 18.5H29.51" stroke="#EEEEEE" stroke-opacity="0.75" stroke-width="2" stroke-linecap="round" stroke-linejoin="round"/>
</g>
<defs>
<clipPath id="clip0_2990_4444">
<rect width="48" height="48" rx="24" fill="white"/>
</clipPath>
</defs>
</svg>
