<svg width="48" height="48" viewBox="0 0 48 48" fill="none" xmlns="http://www.w3.org/2000/svg">
<g clip-path="url(#clip0_2990_4451)">
<rect width="48" height="48" rx="24" fill="#393E46"/>
<rect width="48" height="48" rx="24" fill="#393E46"/>
<rect width="48" height="48" rx="24" fill="#393E46"/>
<path d="M35 14.9998C34.0424 15.6753 32.9821 16.1919 31.86 16.5298C31.2577 15.8373 30.4573 15.3465 29.567 15.1237C28.6767 14.901 27.7395 14.957 26.8821 15.2843C26.0247 15.6115 25.2884 16.1942 24.773 16.9535C24.2575 17.7128 23.9877 18.6121 24 19.5298V20.5298C22.2426 20.5754 20.5013 20.1856 18.931 19.3952C17.3607 18.6049 16.0103 17.4384 15 15.9998C15 15.9998 11 24.9998 20 28.9998C17.9405 30.3978 15.4872 31.0987 13 30.9998C22 35.9998 33 30.9998 33 19.4998C32.9991 19.2213 32.9723 18.9434 32.92 18.6698C33.9406 17.6633 34.6608 16.3925 35 14.9998V14.9998Z" stroke="#EEEEEE" stroke-opacity="0.75" stroke-width="2" stroke-linecap="round" stroke-linejoin="round"/>
</g>
<defs>
<clipPath id="clip0_2990_4451">
<rect width="48" height="48" rx="24" fill="white"/>
</clipPath>
</defs>
</svg>
